<svg xmlns="http://www.w3.org/2000/svg" xmlns:xlink="http://www.w3.org/1999/xlink" width="1024" zoomAndPan="magnify" viewBox="0 0 768 767.999994" height="1024" preserveAspectRatio="xMidYMid meet" version="1.2"><defs><clipPath id="5408fa10b0"><path d="M 252 14 L 753.878906 14 L 753.878906 750 L 252 750 Z M 252 14 "/></clipPath><clipPath id="286d021d47"><path d="M 15.878906 308 L 216 308 L 216 702 L 15.878906 702 Z M 15.878906 308 "/></clipPath></defs><g id="8390748957"><g clip-rule="nonzero" clip-path="url(#5408fa10b0)"><path style=" stroke:none;fill-rule:nonzero;fill:#8fa5ba;fill-opacity:1;" d="M 384.921875 749.59375 C 341.71875 749.59375 299.402344 742.191406 259.148438 727.601562 C 253.730469 725.636719 250.929688 719.648438 252.894531 714.230469 C 254.859375 708.808594 260.84375 706.011719 266.261719 707.976562 C 304.230469 721.738281 344.152344 728.71875 384.921875 728.71875 C 576.890625 728.71875 733.0625 572.542969 733.0625 380.574219 C 733.0625 204.46875 601.421875 55.871094 426.84375 34.929688 C 421.121094 34.242188 417.039062 29.046875 417.726562 23.324219 C 418.410156 17.597656 423.609375 13.523438 429.328125 14.199219 C 614.386719 36.402344 753.941406 193.910156 753.941406 380.574219 C 753.941406 430.382812 744.183594 478.710938 724.933594 524.214844 C 706.347656 568.160156 679.742188 607.621094 645.859375 641.511719 C 611.96875 675.394531 572.507812 702 528.5625 720.585938 C 483.066406 739.832031 434.738281 749.59375 384.921875 749.59375 "/></g><g clip-rule="nonzero" clip-path="url(#286d021d47)"><path style=" stroke:none;fill-rule:nonzero;fill:#8fa5ba;fill-opacity:1;" d="M 204.855469 701.179688 C 203.074219 701.179688 201.269531 700.722656 199.617188 699.757812 C 144.75 667.839844 98.742188 622.035156 66.574219 567.304688 C 33.425781 510.917969 15.902344 446.34375 15.902344 380.574219 C 15.902344 359.183594 17.75 337.726562 21.394531 316.820312 C 22.382812 311.144531 27.789062 307.339844 33.464844 308.332031 C 39.144531 309.316406 42.945312 314.726562 41.957031 320.402344 C 38.519531 340.132812 36.777344 360.375 36.777344 380.574219 C 36.777344 504.125 103.195312 619.515625 210.113281 681.714844 C 215.09375 684.613281 216.785156 691.003906 213.886719 695.984375 C 211.949219 699.316406 208.449219 701.179688 204.855469 701.179688 "/></g><path style=" stroke:none;fill-rule:nonzero;fill:#8fa5ba;fill-opacity:1;" d="M 62.773438 233.332031 C 61.230469 233.332031 59.664062 232.988281 58.183594 232.265625 C 53.011719 229.722656 50.871094 223.46875 53.410156 218.300781 C 98.246094 126.875 179.652344 57.394531 276.757812 27.664062 C 282.269531 25.976562 288.105469 29.078125 289.792969 34.589844 C 291.480469 40.101562 288.378906 45.933594 282.867188 47.628906 C 191.257812 75.671875 114.453125 141.226562 72.152344 227.492188 C 70.339844 231.183594 66.628906 233.332031 62.773438 233.332031 "/><path style=" stroke:none;fill-rule:nonzero;fill:#8fa5ba;fill-opacity:1;" d="M 341.640625 512.773438 L 324.042969 530.367188 L 237.78125 444.109375 L 255.378906 426.511719 L 257.746094 428.878906 L 408.984375 159.234375 L 411.917969 179.796875 L 393.738281 211.375 L 412.847656 186.316406 L 416.390625 211.113281 L 409.878906 213.066406 L 373.890625 277.394531 L 301.574219 369.058594 L 261.910156 433.046875 L 271.046875 442.179688 L 322.316406 377.902344 L 412.625 216.492188 L 445.257812 206.671875 L 382.417969 299.472656 L 465.058594 200.71875 L 471.933594 198.648438 L 468.480469 249.339844 L 461.683594 250.578125 L 430.515625 294.035156 L 330.433594 384.375 L 278.4375 449.574219 L 294.835938 465.972656 L 356.230469 404.574219 L 464.027344 254.285156 L 524.964844 243.183594 L 520.351562 268.515625 L 451.792969 333.609375 L 517.441406 284.496094 L 513.867188 304.117188 L 363.574219 411.917969 L 302.179688 473.3125 L 318.578125 489.714844 L 383.773438 437.714844 L 474.117188 337.636719 L 517.574219 306.46875 L 518.8125 299.671875 L 569.503906 296.21875 L 560.613281 325.753906 L 504.507812 371.234375 L 557.542969 335.972656 L 551.660156 355.527344 L 390.25 445.832031 L 325.96875 497.101562 L 335.105469 506.246094 L 399.09375 466.574219 L 490.757812 394.265625 L 555.078125 358.273438 L 557.039062 351.757812 L 572.410156 353.957031 L 524.84375 391.566406 L 584.175781 355.636719 L 608.917969 359.167969 L 339.269531 510.402344 Z M 308.640625 545.773438 C 284.816406 569.589844 246.199219 569.589844 222.378906 545.773438 C 198.558594 521.949219 198.558594 483.332031 222.378906 459.511719 L 234.097656 447.792969 L 320.359375 534.050781 Z M 505.3125 514.476562 L 622.371094 464.839844 C 626.480469 453.25 629.769531 441.277344 632.160156 428.980469 L 410.097656 505.714844 L 636.492188 393.722656 C 636.710938 389.367188 636.824219 384.984375 636.824219 380.574219 C 636.824219 243.773438 527.78125 132.445312 391.871094 128.765625 L 299.566406 265.792969 L 368.007812 129.242188 C 346.757812 130.65625 326.226562 134.699219 306.738281 141.054688 L 181.664062 333.761719 L 262.453125 160.410156 C 185.246094 203.449219 133.015625 285.902344 133.015625 380.574219 C 133.015625 519.695312 245.796875 632.480469 384.921875 632.480469 C 486.144531 632.480469 573.414062 572.769531 613.453125 486.652344 L 505.3125 514.476562 "/><g style="fill:#8fa5ba;fill-opacity:1;"><g transform="translate(154.275037, 240.486655)"><path style="stroke:none" d="M 26.796875 -46.109375 C 27.953125 -46.109375 28.890625 -45.828125 29.609375 -45.265625 C 30.535156 -44.554688 30.992188 -43.507812 30.984375 -42.125 C 31.066406 -41.0625 30.789062 -40.125 30.15625 -39.3125 C 29.425781 -38.375 28.367188 -37.910156 26.984375 -37.921875 L -11.078125 -37.15625 L -10.1875 -31.15625 L 8.015625 -17.015625 C 9.046875 -16.222656 9.625 -15.320312 9.75 -14.3125 C 9.882812 -13.3125 9.550781 -12.296875 8.75 -11.265625 C 7.945312 -10.234375 7.039062 -9.65625 6.03125 -9.53125 C 5.03125 -9.40625 4.015625 -9.738281 2.984375 -10.53125 L -42.828125 -46.125 C -43.859375 -46.925781 -44.4375 -47.828125 -44.5625 -48.828125 C -44.695312 -49.835938 -44.363281 -50.859375 -43.5625 -51.890625 C -42.757812 -52.921875 -41.851562 -53.5 -40.84375 -53.625 C -39.84375 -53.75 -38.828125 -53.410156 -37.796875 -52.609375 L -19.4375 -38.34375 L -24.53125 -73.859375 C -24.707031 -75.222656 -24.492188 -76.289062 -23.890625 -77.0625 C -23.285156 -77.84375 -22.34375 -78.3125 -21.0625 -78.46875 C -19.6875 -78.625 -18.617188 -78.40625 -17.859375 -77.8125 C -17.085938 -77.207031 -16.617188 -76.269531 -16.453125 -75 L -12.1875 -45.46875 Z M 26.796875 -46.109375 "/></g></g><g style="fill:#8fa5ba;fill-opacity:1;"><g transform="translate(186.872896, 199.594983)"><path style="stroke:none" d="M 10.25 -9.921875 C 9.21875 -8.921875 8.238281 -8.425781 7.3125 -8.4375 C 6.394531 -8.457031 5.4375 -8.984375 4.4375 -10.015625 L -35.859375 -51.625 C -36.859375 -52.65625 -37.347656 -53.628906 -37.328125 -54.546875 C -37.316406 -55.472656 -36.796875 -56.4375 -35.765625 -57.4375 C -34.742188 -58.425781 -33.769531 -58.910156 -32.84375 -58.890625 C -31.925781 -58.878906 -30.96875 -58.359375 -29.96875 -57.328125 L 10.328125 -15.71875 C 11.328125 -14.6875 11.816406 -13.707031 11.796875 -12.78125 C 11.785156 -11.863281 11.269531 -10.910156 10.25 -9.921875 Z M 10.25 -9.921875 "/></g></g><g style="fill:#8fa5ba;fill-opacity:1;"><g transform="translate(201.575235, 182.017447)"><path style="stroke:none" d="M 11.765625 -88.375 C 12.847656 -89.113281 13.882812 -89.390625 14.875 -89.203125 C 15.875 -89.015625 16.742188 -88.382812 17.484375 -87.3125 L 50.28125 -39.46875 C 51.019531 -38.394531 51.296875 -37.359375 51.109375 -36.359375 C 50.929688 -35.359375 50.300781 -34.488281 49.21875 -33.75 C 48.582031 -33.3125 47.882812 -33.066406 47.125 -33.015625 C 46.375 -32.972656 45.488281 -33.117188 44.46875 -33.453125 L -13.359375 -51.953125 L 12.8125 -13.765625 C 13.550781 -12.691406 13.828125 -11.65625 13.640625 -10.65625 C 13.460938 -9.664062 12.835938 -8.800781 11.765625 -8.0625 C 10.691406 -7.332031 9.65625 -7.0625 8.65625 -7.25 C 7.65625 -7.4375 6.785156 -8.066406 6.046875 -9.140625 L -26.75 -56.984375 C -27.488281 -58.054688 -27.765625 -59.09375 -27.578125 -60.09375 C -27.390625 -61.09375 -26.757812 -61.957031 -25.6875 -62.6875 C -25.039062 -63.132812 -24.351562 -63.367188 -23.625 -63.390625 C -22.894531 -63.421875 -22 -63.285156 -20.9375 -62.984375 L 36.890625 -44.484375 L 10.71875 -82.671875 C 9.976562 -83.742188 9.695312 -84.78125 9.875 -85.78125 C 10.0625 -86.78125 10.691406 -87.644531 11.765625 -88.375 Z M 11.765625 -88.375 "/></g></g><g style="fill:#8fa5ba;fill-opacity:1;"><g transform="translate(255.600073, 144.241306)"><path style="stroke:none" d="M 27.71875 -10.671875 C 20.726562 -7.984375 14.9375 -7.65625 10.34375 -9.6875 C 5.757812 -11.71875 2.125 -16.226562 -0.5625 -23.21875 L -8.640625 -44.1875 C -11.328125 -51.175781 -11.65625 -56.976562 -9.625 -61.59375 C -7.601562 -66.21875 -3.125 -69.835938 3.8125 -72.453125 L 14.859375 -76.703125 C 20.578125 -78.898438 25.390625 -79.390625 29.296875 -78.171875 C 33.210938 -76.953125 36.390625 -73.914062 38.828125 -69.0625 C 39.503906 -67.863281 39.632812 -66.800781 39.21875 -65.875 C 38.8125 -64.945312 37.96875 -64.234375 36.6875 -63.734375 C 35.46875 -63.265625 34.414062 -63.226562 33.53125 -63.625 C 32.65625 -64.019531 31.878906 -64.816406 31.203125 -66.015625 C 29.847656 -68.640625 28.1875 -70.148438 26.21875 -70.546875 C 24.25 -70.941406 21.441406 -70.441406 17.796875 -69.046875 L 6.75 -64.796875 C 3.457031 -63.585938 1.054688 -62.234375 -0.453125 -60.734375 C -1.972656 -59.242188 -2.757812 -57.4375 -2.8125 -55.3125 C -2.875 -53.195312 -2.265625 -50.46875 -0.984375 -47.125 L 7.09375 -26.15625 C 8.375 -22.820312 9.753906 -20.410156 11.234375 -18.921875 C 12.722656 -17.441406 14.515625 -16.648438 16.609375 -16.546875 C 18.703125 -16.453125 21.421875 -17.046875 24.765625 -18.328125 L 35.703125 -22.546875 C 38.617188 -23.660156 40.726562 -24.832031 42.03125 -26.0625 C 43.34375 -27.300781 44.019531 -28.816406 44.0625 -30.609375 C 44.101562 -32.410156 43.5625 -34.769531 42.4375 -37.6875 L 40.78125 -41.96875 L 33.625 -39.34375 C 31.082031 -38.363281 29.316406 -39.144531 28.328125 -41.6875 C 27.867188 -42.90625 27.84375 -43.976562 28.25 -44.90625 C 28.65625 -45.832031 29.460938 -46.53125 30.671875 -47 L 41.671875 -51.109375 C 42.890625 -51.578125 43.957031 -51.601562 44.875 -51.1875 C 45.800781 -50.78125 46.5 -49.972656 46.96875 -48.765625 L 50.09375 -40.640625 C 52.570312 -34.203125 52.878906 -28.910156 51.015625 -24.765625 C 49.148438 -20.628906 45.03125 -17.335938 38.65625 -14.890625 Z M 27.71875 -10.671875 "/></g></g><g style="fill:#8fa5ba;fill-opacity:1;"><g transform="translate(314.556853, 122.874318)"><path style="stroke:none" d="M 2.453125 -65.140625 C 2.535156 -64.753906 2.582031 -64.226562 2.59375 -63.5625 L 0.46875 -49.5 C 0.40625 -48.882812 0.128906 -48.335938 -0.359375 -47.859375 C -0.859375 -47.390625 -1.460938 -47.078125 -2.171875 -46.921875 C -3.054688 -46.734375 -3.921875 -46.828125 -4.765625 -47.203125 C -5.617188 -47.585938 -6.144531 -48.222656 -6.34375 -49.109375 C -6.445312 -49.617188 -6.457031 -50.117188 -6.375 -50.609375 L -4.9375 -60.125 C -6.144531 -60.445312 -6.925781 -61.410156 -7.28125 -63.015625 L -7.796875 -65.390625 C -8.066406 -66.597656 -7.929688 -67.59375 -7.390625 -68.375 C -6.859375 -69.15625 -5.992188 -69.675781 -4.796875 -69.9375 L -2.5 -70.4375 C -0.0820312 -70.96875 1.394531 -69.992188 1.9375 -67.515625 Z M 2.453125 -65.140625 "/></g></g><g style="fill:#8fa5ba;fill-opacity:1;"><g transform="translate(332.995312, 116.765913)"><path style="stroke:none" d="M 26.609375 -1.703125 C 21.023438 -1.347656 16.613281 -2.191406 13.375 -4.234375 C 10.144531 -6.273438 7.992188 -9.613281 6.921875 -14.25 C 6.703125 -15.601562 6.925781 -16.675781 7.59375 -17.46875 C 8.257812 -18.269531 9.269531 -18.710938 10.625 -18.796875 C 11.9375 -18.878906 12.9375 -18.628906 13.625 -18.046875 C 14.320312 -17.472656 14.84375 -16.476562 15.1875 -15.0625 C 15.78125 -12.894531 16.898438 -11.4375 18.546875 -10.6875 C 20.191406 -9.9375 22.703125 -9.671875 26.078125 -9.890625 L 40.125 -10.796875 C 42.976562 -10.972656 45.144531 -11.4375 46.625 -12.1875 C 48.113281 -12.9375 49.132812 -14.09375 49.6875 -15.65625 C 50.25 -17.226562 50.4375 -19.414062 50.25 -22.21875 C 49.988281 -26.375 49.03125 -29.179688 47.375 -30.640625 C 45.71875 -32.097656 42.84375 -32.695312 38.75 -32.4375 L 26.65625 -31.65625 C 20.539062 -31.269531 15.894531 -32.472656 12.71875 -35.265625 C 9.539062 -38.066406 7.753906 -42.554688 7.359375 -48.734375 C 6.960938 -54.835938 8.144531 -59.460938 10.90625 -62.609375 C 13.675781 -65.753906 18.117188 -67.523438 24.234375 -67.921875 L 35.84375 -68.65625 C 46.101562 -69.320312 52.285156 -65.414062 54.390625 -56.9375 C 54.671875 -55.570312 54.476562 -54.5 53.8125 -53.71875 C 53.15625 -52.9375 52.109375 -52.5 50.671875 -52.40625 C 49.367188 -52.320312 48.367188 -52.582031 47.671875 -53.1875 C 46.984375 -53.789062 46.5 -54.769531 46.21875 -56.125 C 45.582031 -57.96875 44.523438 -59.203125 43.046875 -59.828125 C 41.566406 -60.453125 39.335938 -60.664062 36.359375 -60.46875 L 24.75 -59.734375 C 22.082031 -59.554688 20.066406 -59.128906 18.703125 -58.453125 C 17.347656 -57.785156 16.441406 -56.734375 15.984375 -55.296875 C 15.523438 -53.859375 15.378906 -51.84375 15.546875 -49.25 C 15.710938 -46.582031 16.128906 -44.570312 16.796875 -43.21875 C 17.472656 -41.863281 18.53125 -40.921875 19.96875 -40.390625 C 21.414062 -39.859375 23.46875 -39.675781 26.125 -39.84375 L 38.21875 -40.625 C 44.644531 -41.03125 49.515625 -39.773438 52.828125 -36.859375 C 56.148438 -33.941406 58.019531 -29.238281 58.4375 -22.75 C 58.851562 -16.3125 57.597656 -11.445312 54.671875 -8.15625 C 51.753906 -4.863281 47.082031 -3.015625 40.65625 -2.609375 Z M 26.609375 -1.703125 "/></g></g><g style="fill:#8fa5ba;fill-opacity:1;"><g transform="translate(394.744484, 113.834413)"><path style="stroke:none" d=""/></g></g><g style="fill:#8fa5ba;fill-opacity:1;"><g transform="translate(420.607529, 115.264791)"><path style="stroke:none" d="M 13.875 3.3125 C 11.207031 2.675781 10.191406 1.023438 10.828125 -1.640625 L 24.3125 -58.0625 C 24.945312 -60.726562 26.597656 -61.742188 29.265625 -61.109375 C 31.921875 -60.472656 32.929688 -58.820312 32.296875 -56.15625 L 19.765625 -3.71875 L 46.078125 2.578125 C 48.742188 3.210938 49.757812 4.859375 49.125 7.515625 C 48.488281 10.179688 46.835938 11.195312 44.171875 10.5625 Z M 13.875 3.3125 "/></g></g><g style="fill:#8fa5ba;fill-opacity:1;"><g transform="translate(465.969757, 125.143982)"><path style="stroke:none" d="M 77.453125 -36.875 C 78.390625 -35.457031 78.601562 -34.1875 78.09375 -33.0625 C 77.769531 -32.34375 77.1875 -31.75 76.34375 -31.28125 L 40.5625 -8.1875 L 32.4375 10 C 31.90625 11.1875 31.164062 11.957031 30.21875 12.3125 C 29.269531 12.675781 28.203125 12.59375 27.015625 12.0625 C 25.828125 11.53125 25.050781 10.789062 24.6875 9.84375 C 24.332031 8.90625 24.421875 7.84375 24.953125 6.65625 L 33.078125 -11.53125 L 27.203125 -53.21875 C 27.085938 -54.257812 27.175781 -55.109375 27.46875 -55.765625 C 28.03125 -57.023438 29.109375 -57.757812 30.703125 -57.96875 C 31.753906 -58.070312 32.609375 -57.972656 33.265625 -57.671875 C 34.390625 -57.171875 35.085938 -56.113281 35.359375 -54.5 L 40.40625 -17.90625 L 71.921875 -38.171875 C 73.171875 -39.046875 74.390625 -39.21875 75.578125 -38.6875 C 76.285156 -38.363281 76.910156 -37.757812 77.453125 -36.875 Z M 77.453125 -36.875 "/></g></g><g style="fill:#8fa5ba;fill-opacity:1;"><g transform="translate(514.63397, 145.135448)"><path style="stroke:none" d="M 87.4375 -17.46875 C 88.476562 -16.6875 89.070312 -15.789062 89.21875 -14.78125 C 89.363281 -13.78125 89.046875 -12.757812 88.265625 -11.71875 L 53.609375 34.8125 C 52.828125 35.851562 51.9375 36.445312 50.9375 36.59375 C 49.9375 36.75 48.914062 36.4375 47.875 35.65625 C 47.238281 35.1875 46.773438 34.597656 46.484375 33.890625 C 46.203125 33.191406 46.050781 32.3125 46.03125 31.25 L 44.828125 -29.453125 L 17.171875 7.671875 C 16.390625 8.710938 15.5 9.304688 14.5 9.453125 C 13.5 9.609375 12.476562 9.296875 11.4375 8.515625 C 10.394531 7.742188 9.796875 6.851562 9.640625 5.84375 C 9.492188 4.832031 9.8125 3.804688 10.59375 2.765625 L 45.25 -43.765625 C 46.03125 -44.804688 46.921875 -45.398438 47.921875 -45.546875 C 48.929688 -45.691406 49.957031 -45.378906 51 -44.609375 C 51.625 -44.140625 52.066406 -43.5625 52.328125 -42.875 C 52.597656 -42.1875 52.765625 -41.289062 52.828125 -40.1875 L 54.03125 20.515625 L 81.6875 -16.625 C 82.46875 -17.664062 83.359375 -18.257812 84.359375 -18.40625 C 85.359375 -18.5625 86.382812 -18.25 87.4375 -17.46875 Z M 87.4375 -17.46875 "/></g></g><g style="fill:#8fa5ba;fill-opacity:1;"><g transform="translate(567.901717, 183.552833)"><path style="stroke:none" d="M 89.078125 4.078125 C 89.898438 5.078125 90.257812 6.082031 90.15625 7.09375 C 90.0625 8.113281 89.507812 9.035156 88.5 9.859375 L 43.671875 46.6875 C 42.671875 47.507812 41.660156 47.867188 40.640625 47.765625 C 39.628906 47.671875 38.710938 47.125 37.890625 46.125 C 37.390625 45.519531 37.082031 44.835938 36.96875 44.078125 C 36.863281 43.328125 36.929688 42.4375 37.171875 41.40625 L 50.609375 -17.8125 L 14.828125 11.578125 C 13.828125 12.398438 12.820312 12.765625 11.8125 12.671875 C 10.800781 12.578125 9.882812 12.023438 9.0625 11.015625 C 8.226562 10.015625 7.863281 9.003906 7.96875 7.984375 C 8.070312 6.972656 8.625 6.054688 9.625 5.234375 L 54.453125 -31.59375 C 55.460938 -32.414062 56.472656 -32.773438 57.484375 -32.671875 C 58.492188 -32.578125 59.414062 -32.03125 60.25 -31.03125 C 60.738281 -30.425781 61.03125 -29.757812 61.125 -29.03125 C 61.21875 -28.300781 61.160156 -27.394531 60.953125 -26.3125 L 47.515625 32.90625 L 83.28125 3.515625 C 84.289062 2.691406 85.300781 2.328125 86.3125 2.421875 C 87.320312 2.515625 88.242188 3.066406 89.078125 4.078125 Z M 89.078125 4.078125 "/></g></g><g style="fill:#8fa5ba;fill-opacity:1;"><g transform="translate(50.257943, 413.583443)"><path style="stroke:none" d="M 47.296875 43.109375 C 45.398438 48.742188 40.722656 52.328125 33.265625 53.859375 L 30.015625 54.53125 C 24.148438 55.75 19.363281 55.128906 15.65625 52.671875 C 11.957031 50.210938 9.503906 46.050781 8.296875 40.1875 L 2.890625 13.96875 C 2.617188 12.695312 2.757812 11.632812 3.3125 10.78125 C 3.875 9.9375 4.796875 9.382812 6.078125 9.125 L 62.890625 -2.609375 C 64.160156 -2.867188 65.21875 -2.71875 66.0625 -2.15625 C 66.914062 -1.601562 67.476562 -0.691406 67.75 0.578125 L 72.890625 25.546875 C 73.929688 30.578125 73.394531 34.738281 71.28125 38.03125 C 69.175781 41.332031 65.632812 43.5 60.65625 44.53125 L 58.078125 45.0625 C 56.035156 45.476562 54.082031 45.515625 52.21875 45.171875 C 50.351562 44.835938 48.710938 44.148438 47.296875 43.109375 Z M 42.84375 9.90625 L 47.421875 32.109375 L 47.765625 33.8125 C 48.304688 35.4375 49.34375 36.488281 50.875 36.96875 C 52.40625 37.457031 54.253906 37.476562 56.421875 37.03125 L 59 36.5 C 61.75 35.925781 63.5625 34.953125 64.4375 33.578125 C 65.3125 32.203125 65.453125 30.078125 64.859375 27.203125 L 60.546875 6.25 Z M 31.59375 45.828125 C 35.164062 45.097656 37.546875 43.8125 38.734375 41.96875 C 39.921875 40.125 40.140625 37.390625 39.390625 33.765625 L 34.8125 11.5625 L 11.75 16.328125 L 16.328125 38.53125 C 17.066406 42.101562 18.359375 44.507812 20.203125 45.75 C 22.054688 46.988281 24.769531 47.238281 28.34375 46.5 Z M 31.59375 45.828125 "/></g></g><g style="fill:#8fa5ba;fill-opacity:1;"><g transform="translate(66.079881, 485.678614)"><path style="stroke:none" d="M 30.15625 52.953125 C 29.71875 53.429688 29.175781 53.816406 28.53125 54.109375 C 27.101562 54.742188 25.703125 54.414062 24.328125 53.125 C 23.847656 52.6875 23.460938 52.144531 23.171875 51.5 C 22.523438 50.070312 22.859375 48.671875 24.171875 47.296875 L 33.671875 37.234375 L 21.21875 9.53125 L 7.453125 10.15625 C 5.554688 10.21875 4.285156 9.535156 3.640625 8.109375 C 3.378906 7.503906 3.25 6.882812 3.25 6.25 C 3.09375 4.320312 3.757812 3.023438 5.25 2.359375 C 5.894531 2.066406 6.539062 1.921875 7.1875 1.921875 L 68.9375 -0.375 C 71.289062 -0.363281 72.894531 0.59375 73.75 2.5 L 73.828125 2.671875 C 74.585938 4.679688 74.195312 6.425781 72.65625 7.90625 Z M 30.015625 9.09375 L 39.796875 30.84375 L 61.765625 7.546875 Z M 30.015625 9.09375 "/></g></g><g style="fill:#8fa5ba;fill-opacity:1;"><g transform="translate(96.814394, 552.402159)"><path style="stroke:none" d="M 8.625 11.359375 C 7.84375 10.316406 7.519531 9.296875 7.65625 8.296875 C 7.789062 7.296875 8.375 6.398438 9.40625 5.609375 L 55.609375 -29.5 C 56.640625 -30.28125 57.660156 -30.601562 58.671875 -30.46875 C 59.679688 -30.34375 60.578125 -29.757812 61.359375 -28.71875 L 75.609375 -9.96875 C 80.773438 -3.175781 82.972656 3.023438 82.203125 8.640625 C 81.441406 14.253906 77.664062 19.640625 70.875 24.796875 L 57.640625 34.84375 C 50.847656 40.007812 44.644531 42.207031 39.03125 41.4375 C 33.425781 40.675781 28.039062 36.898438 22.875 30.109375 Z M 29.40625 25.140625 C 31.96875 28.503906 34.378906 30.816406 36.640625 32.078125 C 38.910156 33.335938 41.304688 33.660156 43.828125 33.046875 C 46.359375 32.441406 49.304688 30.859375 52.671875 28.296875 L 65.90625 18.25 C 69.269531 15.6875 71.582031 13.269531 72.84375 11 C 74.113281 8.738281 74.441406 6.347656 73.828125 3.828125 C 73.222656 1.304688 71.640625 -1.632812 69.078125 -5 L 57.3125 -20.484375 L 17.640625 9.65625 Z M 29.40625 25.140625 "/></g></g><g style="fill:#8fa5ba;fill-opacity:1;"><g transform="translate(145.604858, 615.785632)"><path style="stroke:none" d="M 94.609375 -9.890625 C 96.359375 -8.523438 96.382812 -6.765625 94.6875 -4.609375 L 58.84375 41 C 58.039062 42.019531 57.132812 42.59375 56.125 42.71875 C 55.113281 42.84375 54.097656 42.503906 53.078125 41.703125 C 52.054688 40.898438 51.484375 39.992188 51.359375 38.984375 C 51.242188 37.972656 51.585938 36.957031 52.390625 35.9375 L 80.328125 0.390625 L 49.84375 10.09375 C 48.757812 10.414062 47.78125 10.5 46.90625 10.34375 C 46.03125 10.1875 45.15625 9.765625 44.28125 9.078125 C 43.664062 8.585938 43.242188 7.988281 43.015625 7.28125 C 42.796875 6.582031 42.71875 5.671875 42.78125 4.546875 L 44.984375 -27.53125 L 16.96875 8.109375 C 16.164062 9.128906 15.257812 9.703125 14.25 9.828125 C 13.25 9.953125 12.238281 9.613281 11.21875 8.8125 C 10.195312 8.007812 9.625 7.101562 9.5 6.09375 C 9.375 5.082031 9.710938 4.066406 10.515625 3.046875 L 46.359375 -42.5625 C 47.171875 -43.59375 48.082031 -44.164062 49.09375 -44.28125 C 50.101562 -44.40625 51.117188 -44.066406 52.140625 -43.265625 C 53.578125 -42.140625 54.207031 -40.523438 54.03125 -38.421875 L 50.859375 1.6875 L 89.046875 -10.890625 C 91.023438 -11.585938 92.878906 -11.253906 94.609375 -9.890625 Z M 94.609375 -9.890625 "/></g></g><g style="fill:#8fa5ba;fill-opacity:1;"><g transform="translate(216.926318, 667.914712)"><path style="stroke:none" d="M 12.640625 6.609375 C 11.367188 5.941406 10.59375 5.164062 10.3125 4.28125 C 10.039062 3.40625 10.238281 2.332031 10.90625 1.0625 L 37.703125 -50.28125 C 38.367188 -51.5625 39.140625 -52.335938 40.015625 -52.609375 C 40.898438 -52.878906 41.976562 -52.679688 43.25 -52.015625 C 44.519531 -51.359375 45.289062 -50.59375 45.5625 -49.71875 C 45.84375 -48.84375 45.648438 -47.765625 44.984375 -46.484375 L 18.1875 4.859375 C 17.519531 6.128906 16.742188 6.898438 15.859375 7.171875 C 14.984375 7.453125 13.910156 7.265625 12.640625 6.609375 Z M 12.640625 6.609375 "/></g></g><g style="fill:#8fa5ba;fill-opacity:1;"><g transform="translate(247.25847, 685.331994)"><path style="stroke:none" d="M 77.03125 -44.921875 C 78.269531 -44.523438 79.117188 -43.875 79.578125 -42.96875 C 80.046875 -42.0625 80.082031 -40.988281 79.6875 -39.75 L 62.015625 15.5 C 61.617188 16.75 60.96875 17.601562 60.0625 18.0625 C 59.164062 18.53125 58.097656 18.566406 56.859375 18.171875 C 56.109375 17.929688 55.484375 17.523438 54.984375 16.953125 C 54.484375 16.390625 54.046875 15.601562 53.671875 14.59375 L 32.828125 -42.421875 L 18.734375 1.671875 C 18.335938 2.921875 17.691406 3.773438 16.796875 4.234375 C 15.898438 4.703125 14.832031 4.738281 13.59375 4.34375 C 12.351562 3.945312 11.5 3.296875 11.03125 2.390625 C 10.5625 1.492188 10.523438 0.421875 10.921875 -0.828125 L 28.59375 -56.078125 C 28.988281 -57.316406 29.640625 -58.171875 30.546875 -58.640625 C 31.453125 -59.109375 32.523438 -59.144531 33.765625 -58.75 C 34.503906 -58.507812 35.109375 -58.109375 35.578125 -57.546875 C 36.046875 -56.984375 36.488281 -56.191406 36.90625 -55.171875 L 57.75 1.84375 L 71.859375 -42.25 C 72.253906 -43.488281 72.90625 -44.34375 73.8125 -44.8125 C 74.71875 -45.28125 75.789062 -45.316406 77.03125 -44.921875 Z M 77.03125 -44.921875 "/></g></g><g style="fill:#8fa5ba;fill-opacity:1;"><g transform="translate(326.00567, 708.71152)"><path style="stroke:none" d="M 29.875 2.546875 C 27.15625 2.316406 25.910156 0.835938 26.140625 -1.890625 L 30.71875 -55.515625 L 11.828125 -57.125 C 9.097656 -57.363281 7.847656 -58.847656 8.078125 -61.578125 C 8.304688 -64.304688 9.785156 -65.550781 12.515625 -65.3125 L 58.46875 -61.40625 C 61.1875 -61.175781 62.429688 -59.695312 62.203125 -56.96875 C 61.972656 -54.238281 60.5 -52.988281 57.78125 -53.21875 L 38.890625 -54.828125 L 34.3125 -1.203125 C 34.207031 0.0859375 33.765625 1.0625 32.984375 1.71875 C 32.210938 2.375 31.175781 2.648438 29.875 2.546875 Z M 29.875 2.546875 "/></g></g><g style="fill:#8fa5ba;fill-opacity:1;"><g transform="translate(393.912571, 714.209938)"><path style="stroke:none" d="M 29.4375 -3.984375 C 22.007812 -2.984375 16.296875 -4 12.296875 -7.03125 C 8.304688 -10.070312 5.804688 -15.300781 4.796875 -22.71875 L 1.765625 -45.09375 C 0.753906 -52.519531 1.785156 -58.234375 4.859375 -62.234375 C 7.941406 -66.234375 13.171875 -68.695312 20.546875 -69.625 L 32.15625 -71.203125 C 39.570312 -72.210938 45.273438 -71.191406 49.265625 -68.140625 C 53.253906 -65.097656 55.753906 -59.863281 56.765625 -52.4375 L 59.78125 -30.171875 C 60.789062 -22.753906 59.773438 -17.050781 56.734375 -13.0625 C 53.691406 -9.070312 48.460938 -6.570312 41.046875 -5.5625 Z M 39.9375 -13.6875 C 43.488281 -14.164062 46.160156 -14.957031 47.953125 -16.0625 C 49.753906 -17.164062 50.941406 -18.722656 51.515625 -20.734375 C 52.085938 -22.753906 52.132812 -25.535156 51.65625 -29.078125 L 48.640625 -51.34375 C 48.160156 -54.832031 47.375 -57.488281 46.28125 -59.3125 C 45.1875 -61.132812 43.609375 -62.332031 41.546875 -62.90625 C 39.492188 -63.476562 36.726562 -63.53125 33.25 -63.0625 L 21.640625 -61.484375 C 18.140625 -61.078125 15.476562 -60.320312 13.65625 -59.21875 C 11.832031 -58.125 10.632812 -56.550781 10.0625 -54.5 C 9.488281 -52.445312 9.4375 -49.679688 9.90625 -46.203125 L 12.9375 -23.828125 C 13.414062 -20.285156 14.203125 -17.617188 15.296875 -15.828125 C 16.398438 -14.046875 17.957031 -12.859375 19.96875 -12.265625 C 21.988281 -11.679688 24.773438 -11.628906 28.328125 -12.109375 Z M 39.9375 -13.6875 "/></g></g><g style="fill:#8fa5ba;fill-opacity:1;"><g transform="translate(473.190755, 702.528824)"><path style="stroke:none" d="M 31.046875 -83.578125 C 32.253906 -84.054688 33.320312 -84.09375 34.25 -83.6875 C 35.1875 -83.289062 35.894531 -82.488281 36.375 -81.28125 L 57.78125 -27.34375 C 58.257812 -26.132812 58.296875 -25.0625 57.890625 -24.125 C 57.492188 -23.195312 56.691406 -22.492188 55.484375 -22.015625 C 54.753906 -21.734375 54.015625 -21.648438 53.265625 -21.765625 C 52.515625 -21.890625 51.675781 -22.222656 50.75 -22.765625 L -1.53125 -53.609375 L 15.546875 -10.578125 C 16.023438 -9.367188 16.066406 -8.300781 15.671875 -7.375 C 15.273438 -6.445312 14.472656 -5.742188 13.265625 -5.265625 C 12.046875 -4.785156 10.96875 -4.742188 10.03125 -5.140625 C 9.101562 -5.546875 8.398438 -6.351562 7.921875 -7.5625 L -13.484375 -61.5 C -13.960938 -62.707031 -14 -63.773438 -13.59375 -64.703125 C -13.195312 -65.640625 -12.390625 -66.347656 -11.171875 -66.828125 C -10.453125 -67.109375 -9.726562 -67.179688 -9 -67.046875 C -8.28125 -66.910156 -7.4375 -66.582031 -6.46875 -66.0625 L 45.8125 -35.21875 L 28.734375 -78.25 C 28.253906 -79.457031 28.210938 -80.523438 28.609375 -81.453125 C 29.015625 -82.390625 29.828125 -83.097656 31.046875 -83.578125 Z M 31.046875 -83.578125 "/></g></g><g style="fill:#8fa5ba;fill-opacity:1;"><g transform="translate(546.808594, 670.676099)"><path style="stroke:none" d=""/></g></g><g style="fill:#8fa5ba;fill-opacity:1;"><g transform="translate(578.681303, 652.213989)"><path style="stroke:none" d="M 22.359375 -19.546875 C 16.722656 -14.617188 11.398438 -12.320312 6.390625 -12.65625 C 1.378906 -12.988281 -3.59375 -15.972656 -8.53125 -21.609375 L -23.3125 -38.515625 C -28.238281 -44.160156 -30.539062 -49.5 -30.21875 -54.53125 C -29.90625 -59.570312 -26.9375 -64.507812 -21.3125 -69.34375 L -12.40625 -77.125 C -7.800781 -81.15625 -3.453125 -83.273438 0.640625 -83.484375 C 4.742188 -83.691406 8.769531 -81.929688 12.71875 -78.203125 C 13.757812 -77.296875 14.25 -76.335938 14.1875 -75.328125 C 14.125 -74.328125 13.578125 -73.375 12.546875 -72.46875 C 11.566406 -71.613281 10.59375 -71.21875 9.625 -71.28125 C 8.65625 -71.351562 7.648438 -71.835938 6.609375 -72.734375 C 4.441406 -74.722656 2.363281 -75.566406 0.375 -75.265625 C -1.613281 -74.960938 -4.078125 -73.523438 -7.015625 -70.953125 L -15.921875 -63.171875 C -18.609375 -60.898438 -20.40625 -58.800781 -21.3125 -56.875 C -22.21875 -54.957031 -22.332031 -52.992188 -21.65625 -50.984375 C -20.988281 -48.972656 -19.476562 -46.617188 -17.125 -43.921875 L -2.34375 -27.015625 C 0.0078125 -24.328125 2.132812 -22.535156 4.03125 -21.640625 C 5.9375 -20.753906 7.890625 -20.625 9.890625 -21.25 C 11.898438 -21.875 14.253906 -23.363281 16.953125 -25.71875 L 25.78125 -33.4375 C 28.71875 -36.007812 30.472656 -38.253906 31.046875 -40.171875 C 31.617188 -42.097656 31.054688 -44.273438 29.359375 -46.703125 C 28.609375 -47.859375 28.265625 -48.914062 28.328125 -49.875 C 28.398438 -50.84375 28.925781 -51.753906 29.90625 -52.609375 C 30.9375 -53.515625 31.953125 -53.929688 32.953125 -53.859375 C 33.960938 -53.796875 34.84375 -53.1875 35.59375 -52.03125 C 38.769531 -47.613281 39.976562 -43.390625 39.21875 -39.359375 C 38.46875 -35.328125 35.789062 -31.296875 31.1875 -27.265625 Z M 22.359375 -19.546875 "/></g></g><g style="fill:#8fa5ba;fill-opacity:1;"><g transform="translate(634.396712, 601.484917)"><path style="stroke:none" d="M 8.625 -11.359375 C 6.96875 -9.179688 5.050781 -8.921875 2.875 -10.578125 L -43.328125 -45.6875 C -45.503906 -47.34375 -45.765625 -49.257812 -44.109375 -51.4375 C -42.453125 -53.613281 -40.535156 -53.875 -38.359375 -52.21875 L 4.578125 -19.59375 L 20.953125 -41.140625 C 22.609375 -43.316406 24.523438 -43.578125 26.703125 -41.921875 C 28.878906 -40.265625 29.140625 -38.347656 27.484375 -36.171875 Z M 8.625 -11.359375 "/></g></g><g style="fill:#8fa5ba;fill-opacity:1;"><g transform="translate(671.383845, 553.275092)"><path style="stroke:none" d="M 13.15625 -28.140625 C 9.988281 -21.347656 6.046875 -17.097656 1.328125 -15.390625 C -3.390625 -13.691406 -9.140625 -14.425781 -15.921875 -17.59375 L -52.375 -34.640625 C -54.863281 -35.804688 -55.53125 -37.625 -54.375 -40.09375 C -53.207031 -42.570312 -51.378906 -43.226562 -48.890625 -42.0625 L -12.4375 -25.015625 C -9.195312 -23.503906 -6.53125 -22.722656 -4.4375 -22.671875 C -2.34375 -22.617188 -0.507812 -23.28125 1.0625 -24.65625 C 2.644531 -26.039062 4.195312 -28.359375 5.71875 -31.609375 L 10.6875 -42.21875 C 12.207031 -45.46875 12.988281 -48.140625 13.03125 -50.234375 C 13.082031 -52.335938 12.414062 -54.179688 11.03125 -55.765625 C 9.65625 -57.359375 7.347656 -58.910156 4.109375 -60.421875 L -32.34375 -77.46875 C -34.832031 -78.632812 -35.5 -80.453125 -34.34375 -82.921875 C -33.175781 -85.398438 -31.347656 -86.054688 -28.859375 -84.890625 L 7.59375 -67.84375 C 14.375 -64.675781 18.617188 -60.726562 20.328125 -56 C 22.035156 -51.28125 21.300781 -45.53125 18.125 -38.75 Z M 13.15625 -28.140625 "/></g></g><g style="fill:#8fa5ba;fill-opacity:1;"><g transform="translate(704.963254, 477.979661)"><path style="stroke:none" d="M -26.359375 -58.328125 C -22.378906 -62.734375 -16.660156 -64.171875 -9.203125 -62.640625 L -5.953125 -61.96875 C -0.0859375 -60.75 4.050781 -58.28125 6.46875 -54.5625 C 8.894531 -50.84375 9.503906 -46.050781 8.296875 -40.1875 L 2.890625 -13.96875 C 2.617188 -12.695312 2.054688 -11.78125 1.203125 -11.21875 C 0.359375 -10.664062 -0.703125 -10.519531 -1.984375 -10.78125 L -58.796875 -22.515625 C -60.066406 -22.773438 -60.976562 -23.328125 -61.53125 -24.171875 C -62.09375 -25.023438 -62.238281 -26.085938 -61.96875 -27.359375 L -56.828125 -52.328125 C -55.785156 -57.359375 -53.640625 -60.96875 -50.390625 -63.15625 C -47.148438 -65.351562 -43.039062 -65.9375 -38.0625 -64.90625 L -35.484375 -64.375 C -33.441406 -63.957031 -31.632812 -63.21875 -30.0625 -62.15625 C -28.488281 -61.101562 -27.253906 -59.828125 -26.359375 -58.328125 Z M -35.40625 -26.0625 L -30.828125 -48.265625 L -30.484375 -49.96875 C -30.335938 -51.675781 -30.867188 -53.050781 -32.078125 -54.09375 C -33.285156 -55.144531 -34.972656 -55.894531 -37.140625 -56.34375 L -39.71875 -56.875 C -42.46875 -57.445312 -44.519531 -57.273438 -45.875 -56.359375 C -47.226562 -55.441406 -48.203125 -53.546875 -48.796875 -50.671875 L -53.109375 -29.71875 Z M -10.875 -54.609375 C -14.445312 -55.335938 -17.140625 -55.09375 -18.953125 -53.875 C -20.765625 -52.65625 -22.046875 -50.234375 -22.796875 -46.609375 L -27.375 -24.40625 L -4.3125 -19.640625 L 0.265625 -41.84375 C 1.003906 -45.414062 0.769531 -48.140625 -0.4375 -50.015625 C -1.65625 -51.890625 -4.050781 -53.195312 -7.625 -53.9375 Z M -10.875 -54.609375 "/></g></g><g style="fill:#20222a;fill-opacity:1;"><g transform="translate(333.631488, 589.241356)"><path style="stroke:none" d="M 8.703125 -6.5625 L 8.4375 -5.640625 C 8.113281 -4.523438 7.992188 -3.628906 8.078125 -2.953125 C 8.160156 -2.285156 8.46875 -1.734375 9 -1.296875 C 9.53125 -0.867188 10.351562 -0.492188 11.46875 -0.171875 L 14.609375 0.75 C 15.910156 1.125 16.910156 1.28125 17.609375 1.21875 C 18.304688 1.15625 18.84375 0.851562 19.21875 0.3125 C 19.519531 -0.15625 19.832031 -0.472656 20.15625 -0.640625 C 20.488281 -0.816406 20.898438 -0.832031 21.390625 -0.6875 C 21.867188 -0.550781 22.207031 -0.335938 22.40625 -0.046875 C 22.613281 0.242188 22.65625 0.59375 22.53125 1 C 22.476562 1.1875 22.429688 1.3125 22.390625 1.375 C 20.921875 4.351562 18.019531 5.21875 13.6875 3.96875 L 10.546875 3.046875 C 7.992188 2.316406 6.285156 1.164062 5.421875 -0.40625 C 4.554688 -1.988281 4.488281 -4.039062 5.21875 -6.5625 L 6.5 -11 C 7.25 -13.570312 8.410156 -15.289062 9.984375 -16.15625 C 11.554688 -17.03125 13.613281 -17.085938 16.15625 -16.328125 L 19.296875 -15.40625 C 21.847656 -14.675781 23.554688 -13.523438 24.421875 -11.953125 C 25.285156 -10.378906 25.347656 -8.316406 24.609375 -5.765625 L 24.0625 -3.859375 C 23.914062 -3.347656 23.660156 -2.988281 23.296875 -2.78125 C 22.941406 -2.582031 22.507812 -2.554688 22 -2.703125 Z M 9.640625 -9.78125 L 21.328125 -6.390625 L 21.40625 -6.6875 C 21.726562 -7.800781 21.847656 -8.703125 21.765625 -9.390625 C 21.691406 -10.078125 21.382812 -10.632812 20.84375 -11.0625 C 20.3125 -11.5 19.484375 -11.878906 18.359375 -12.203125 L 15.21875 -13.125 C 14.113281 -13.46875 13.21875 -13.597656 12.53125 -13.515625 C 11.851562 -13.441406 11.296875 -13.132812 10.859375 -12.59375 C 10.429688 -12.0625 10.050781 -11.222656 9.71875 -10.078125 Z M 9.640625 -9.78125 "/></g></g><g style="fill:#20222a;fill-opacity:1;"><g transform="translate(360.166685, 596.691998)"><path style="stroke:none" d="M 8.8125 1.078125 C 5.46875 0.671875 3.691406 -0.945312 3.484375 -3.78125 C 3.460938 -3.863281 3.457031 -3.984375 3.46875 -4.140625 C 3.53125 -4.585938 3.726562 -4.914062 4.0625 -5.125 C 4.394531 -5.34375 4.8125 -5.421875 5.3125 -5.359375 C 5.8125 -5.296875 6.175781 -5.125 6.40625 -4.84375 C 6.644531 -4.5625 6.804688 -4.125 6.890625 -3.53125 C 6.992188 -3.101562 7.210938 -2.800781 7.546875 -2.625 C 7.890625 -2.457031 8.445312 -2.328125 9.21875 -2.234375 L 15.703125 -1.4375 C 16.722656 -1.3125 17.429688 -1.394531 17.828125 -1.6875 C 18.222656 -1.988281 18.488281 -2.664062 18.625 -3.71875 C 18.75 -4.769531 18.65625 -5.488281 18.34375 -5.875 C 18.03125 -6.269531 17.363281 -6.53125 16.34375 -6.65625 L 9.984375 -7.4375 C 6.148438 -7.90625 4.46875 -10.046875 4.9375 -13.859375 C 5.175781 -15.816406 5.832031 -17.207031 6.90625 -18.03125 C 7.976562 -18.851562 9.476562 -19.148438 11.40625 -18.921875 L 17.5625 -18.15625 C 20.65625 -17.78125 22.320312 -16.253906 22.5625 -13.578125 C 22.582031 -13.503906 22.582031 -13.382812 22.5625 -13.21875 C 22.507812 -12.800781 22.3125 -12.484375 21.96875 -12.265625 C 21.632812 -12.054688 21.222656 -11.984375 20.734375 -12.046875 C 20.222656 -12.109375 19.859375 -12.28125 19.640625 -12.5625 C 19.429688 -12.84375 19.273438 -13.25 19.171875 -13.78125 C 19.054688 -14.125 18.84375 -14.367188 18.53125 -14.515625 C 18.226562 -14.660156 17.765625 -14.769531 17.140625 -14.84375 L 10.984375 -15.609375 C 10.285156 -15.691406 9.757812 -15.691406 9.40625 -15.609375 C 9.0625 -15.535156 8.804688 -15.335938 8.640625 -15.015625 C 8.484375 -14.691406 8.359375 -14.171875 8.265625 -13.453125 C 8.148438 -12.515625 8.226562 -11.859375 8.5 -11.484375 C 8.769531 -11.109375 9.398438 -10.863281 10.390625 -10.75 L 16.75 -9.96875 C 20.695312 -9.476562 22.429688 -7.257812 21.953125 -3.3125 C 21.460938 0.632812 19.242188 2.363281 15.296875 1.875 Z M 8.8125 1.078125 "/></g></g><g style="fill:#20222a;fill-opacity:1;"><g transform="translate(386.233879, 599.517931)"><path style="stroke:none" d="M 12.625 -3.46875 C 13.738281 -3.476562 14.300781 -2.925781 14.3125 -1.8125 C 14.3125 -1.28125 14.164062 -0.863281 13.875 -0.5625 C 13.59375 -0.269531 13.1875 -0.125 12.65625 -0.125 C 10.03125 -0.09375 8.085938 -0.691406 6.828125 -1.921875 C 5.566406 -3.160156 4.921875 -5.082031 4.890625 -7.6875 L 4.8125 -16.875 L 2.875 -16.859375 C 2.34375 -16.847656 1.925781 -16.988281 1.625 -17.28125 C 1.332031 -17.570312 1.1875 -17.984375 1.1875 -18.515625 C 1.175781 -19.628906 1.726562 -20.191406 2.84375 -20.203125 L 4.78125 -20.21875 L 4.75 -23.125 C 4.75 -23.65625 4.890625 -24.066406 5.171875 -24.359375 C 5.460938 -24.660156 5.875 -24.8125 6.40625 -24.8125 C 6.9375 -24.8125 7.347656 -24.664062 7.640625 -24.375 C 7.941406 -24.09375 8.09375 -23.6875 8.09375 -23.15625 L 8.125 -20.25 L 12.703125 -20.296875 C 13.816406 -20.304688 14.378906 -19.753906 14.390625 -18.640625 C 14.390625 -18.109375 14.242188 -17.691406 13.953125 -17.390625 C 13.671875 -17.097656 13.265625 -16.953125 12.734375 -16.953125 L 8.15625 -16.90625 L 8.234375 -7.71875 C 8.242188 -6.582031 8.382812 -5.707031 8.65625 -5.09375 C 8.9375 -4.476562 9.378906 -4.050781 9.984375 -3.8125 C 10.597656 -3.570312 11.476562 -3.457031 12.625 -3.46875 Z M 12.625 -3.46875 "/></g></g><g style="fill:#20222a;fill-opacity:1;"><g transform="translate(404.174483, 599.162116)"><path style="stroke:none" d="M 4.90625 -0.484375 C 4.40625 -0.429688 4.003906 -0.53125 3.703125 -0.78125 C 3.398438 -1.03125 3.222656 -1.410156 3.171875 -1.921875 L 3.078125 -2.90625 C 3.023438 -3.40625 3.125 -3.800781 3.375 -4.09375 C 3.625 -4.382812 4 -4.554688 4.5 -4.609375 L 5.453125 -4.703125 C 6.460938 -4.796875 7.019531 -4.328125 7.125 -3.296875 L 7.21875 -2.3125 C 7.269531 -1.800781 7.179688 -1.394531 6.953125 -1.09375 C 6.722656 -0.789062 6.359375 -0.617188 5.859375 -0.578125 Z M 4.90625 -0.484375 "/></g></g><g style="fill:#20222a;fill-opacity:1;"><g transform="translate(416.08957, 598.044148)"><path style="stroke:none" d="M 5.015625 -28.359375 C 5.472656 -28.429688 5.847656 -28.347656 6.140625 -28.109375 C 6.441406 -27.867188 6.640625 -27.488281 6.734375 -26.96875 L 11.015625 -3.71875 C 11.109375 -3.195312 11.035156 -2.765625 10.796875 -2.421875 C 10.566406 -2.085938 10.191406 -1.875 9.671875 -1.78125 C 8.566406 -1.570312 7.914062 -2.015625 7.71875 -3.109375 L 4.046875 -23.078125 L 1.234375 -19.28125 C 0.929688 -18.851562 0.566406 -18.601562 0.140625 -18.53125 C -0.191406 -18.46875 -0.53125 -18.546875 -0.875 -18.765625 C -1.238281 -19.035156 -1.457031 -19.347656 -1.53125 -19.703125 C -1.601562 -20.128906 -1.476562 -20.570312 -1.15625 -21.03125 L 3.140625 -27.15625 C 3.367188 -27.5 3.628906 -27.765625 3.921875 -27.953125 C 4.210938 -28.140625 4.578125 -28.273438 5.015625 -28.359375 Z M 5.015625 -28.359375 "/></g></g><g style="fill:#20222a;fill-opacity:1;"><g transform="translate(433.325279, 595.121764)"><path style="stroke:none" d="M 6.21875 -30.453125 C 8.726562 -31.273438 10.773438 -31.285156 12.359375 -30.484375 C 13.953125 -29.679688 15.160156 -28.03125 15.984375 -25.53125 L 19.703125 -14.21875 C 20.484375 -11.851562 20.488281 -9.90625 19.71875 -8.375 C 18.945312 -6.851562 17.375 -5.707031 15 -4.9375 L 10.3125 -3.390625 C 6.207031 -2.035156 3.335938 -3.046875 1.703125 -6.421875 C 1.453125 -6.929688 1.414062 -7.375 1.59375 -7.75 C 1.78125 -8.132812 2.140625 -8.414062 2.671875 -8.59375 C 3.628906 -8.90625 4.351562 -8.566406 4.84375 -7.578125 C 5.269531 -6.796875 5.8125 -6.332031 6.46875 -6.1875 C 7.125 -6.039062 8.054688 -6.164062 9.265625 -6.5625 L 13.953125 -8.109375 C 14.960938 -8.429688 15.703125 -8.796875 16.171875 -9.203125 C 16.648438 -9.617188 16.910156 -10.132812 16.953125 -10.75 C 17.003906 -11.363281 16.863281 -12.171875 16.53125 -13.171875 L 15.5 -16.328125 C 14.90625 -14.816406 13.703125 -13.765625 11.890625 -13.171875 L 7.953125 -11.875 C 5.460938 -11.050781 3.410156 -11.046875 1.796875 -11.859375 C 0.191406 -12.671875 -1.019531 -14.328125 -1.84375 -16.828125 L -2.671875 -19.359375 C -3.503906 -21.878906 -3.507812 -23.9375 -2.6875 -25.53125 C -1.863281 -27.125 -0.207031 -28.332031 2.28125 -29.15625 Z M 3.328125 -25.96875 C 2.222656 -25.601562 1.414062 -25.195312 0.90625 -24.75 C 0.394531 -24.3125 0.109375 -23.75 0.046875 -23.0625 C -0.00390625 -22.375 0.144531 -21.488281 0.5 -20.40625 L 1.328125 -17.875 C 1.691406 -16.757812 2.097656 -15.945312 2.546875 -15.4375 C 3.003906 -14.9375 3.570312 -14.65625 4.25 -14.59375 C 4.925781 -14.539062 5.8125 -14.691406 6.90625 -15.046875 L 10.84375 -16.34375 C 11.945312 -16.707031 12.753906 -17.113281 13.265625 -17.5625 C 13.773438 -18.007812 14.054688 -18.566406 14.109375 -19.234375 C 14.171875 -19.910156 14.023438 -20.789062 13.671875 -21.875 L 12.8125 -24.484375 C 12.457031 -25.566406 12.054688 -26.363281 11.609375 -26.875 C 11.160156 -27.382812 10.597656 -27.664062 9.921875 -27.71875 C 9.253906 -27.78125 8.367188 -27.628906 7.265625 -27.265625 Z M 3.328125 -25.96875 "/></g></g><g style="fill:#20222a;fill-opacity:1;"><g transform="translate(460.867772, 585.779334)"><path style="stroke:none" d="M 14.765625 -17.890625 C 15.234375 -18.140625 15.664062 -18.195312 16.0625 -18.0625 C 16.457031 -17.925781 16.769531 -17.632812 17 -17.1875 C 17.25 -16.71875 17.3125 -16.285156 17.1875 -15.890625 C 17.070312 -15.503906 16.78125 -15.1875 16.3125 -14.9375 L 14.25 -13.875 L 16.09375 -10.34375 C 16.613281 -9.351562 16.382812 -8.597656 15.40625 -8.078125 C 14.9375 -7.828125 14.503906 -7.765625 14.109375 -7.890625 C 13.710938 -8.015625 13.390625 -8.3125 13.140625 -8.78125 L 11.296875 -12.3125 L 0.40625 -6.609375 C -0.0625 -6.359375 -0.492188 -6.289062 -0.890625 -6.40625 C -1.285156 -6.53125 -1.609375 -6.828125 -1.859375 -7.296875 C -2.097656 -7.773438 -2.171875 -8.398438 -2.078125 -9.171875 L 1.171875 -29.90625 C 1.253906 -30.425781 1.414062 -30.828125 1.65625 -31.109375 C 1.90625 -31.390625 2.273438 -31.65625 2.765625 -31.90625 C 3.847656 -32.476562 4.648438 -32.273438 5.171875 -31.296875 L 12.703125 -16.828125 Z M 1.125 -10.65625 L 9.765625 -15.21875 L 3.640625 -27.03125 Z M 1.125 -10.65625 "/></g></g><g style="fill:#20222a;fill-opacity:1;"><g transform="translate(484.947178, 573.030819)"><path style="stroke:none" d="M 7.609375 -23.390625 C 10.148438 -23.742188 12.3125 -22.742188 14.09375 -20.390625 C 15.6875 -18.304688 16.359375 -16.378906 16.109375 -14.609375 C 15.867188 -12.847656 14.691406 -11.164062 12.578125 -9.5625 L 8.96875 -6.8125 C 6.851562 -5.207031 4.910156 -4.523438 3.140625 -4.765625 C 1.378906 -5.015625 -0.296875 -6.179688 -1.890625 -8.265625 C -3.710938 -10.671875 -4.078125 -13.0625 -2.984375 -15.4375 C -5.171875 -15.425781 -7.003906 -16.394531 -8.484375 -18.34375 C -9.960938 -20.289062 -10.582031 -22.101562 -10.34375 -23.78125 C -10.113281 -25.457031 -9.003906 -27.050781 -7.015625 -28.5625 L -3.9375 -30.890625 C -1.957031 -32.398438 -0.125 -33.046875 1.5625 -32.828125 C 3.25 -32.609375 4.832031 -31.523438 6.3125 -29.578125 C 7.863281 -27.523438 8.296875 -25.460938 7.609375 -23.390625 Z M -4.984375 -25.90625 C -5.828125 -25.257812 -6.398438 -24.664062 -6.703125 -24.125 C -7.015625 -23.59375 -7.097656 -23.035156 -6.953125 -22.453125 C -6.804688 -21.867188 -6.425781 -21.175781 -5.8125 -20.375 C -4.8125 -19.0625 -3.929688 -18.3125 -3.171875 -18.125 C -2.410156 -17.945312 -1.53125 -18.234375 -0.53125 -18.984375 L 3.109375 -21.703125 C 3.992188 -22.367188 4.566406 -23.003906 4.828125 -23.609375 C 5.085938 -24.210938 5.109375 -24.820312 4.890625 -25.4375 C 4.671875 -26.050781 4.257812 -26.757812 3.65625 -27.5625 C 3.039062 -28.363281 2.46875 -28.910156 1.9375 -29.203125 C 1.414062 -29.503906 0.851562 -29.578125 0.25 -29.421875 C -0.34375 -29.273438 -1.0625 -28.878906 -1.90625 -28.234375 Z M 10.5625 -12.21875 C 11.488281 -12.914062 12.117188 -13.5625 12.453125 -14.15625 C 12.796875 -14.75 12.878906 -15.375 12.703125 -16.03125 C 12.535156 -16.695312 12.109375 -17.476562 11.421875 -18.375 C 10.734375 -19.289062 10.097656 -19.914062 9.515625 -20.25 C 8.929688 -20.582031 8.304688 -20.660156 7.640625 -20.484375 C 6.984375 -20.316406 6.191406 -19.882812 5.265625 -19.1875 L 1.65625 -16.4375 C 0.726562 -15.726562 0.0976562 -15.082031 -0.234375 -14.5 C -0.578125 -13.914062 -0.664062 -13.296875 -0.5 -12.640625 C -0.332031 -11.984375 0.09375 -11.195312 0.78125 -10.28125 C 1.46875 -9.382812 2.101562 -8.765625 2.6875 -8.421875 C 3.28125 -8.085938 3.90625 -8 4.5625 -8.15625 C 5.226562 -8.320312 6.023438 -8.757812 6.953125 -9.46875 Z M 10.5625 -12.21875 "/></g></g></g></svg>