<svg xmlns="http://www.w3.org/2000/svg" xmlns:xlink="http://www.w3.org/1999/xlink" width="1094" zoomAndPan="magnify" viewBox="0 0 820.5 220.499993" height="294" preserveAspectRatio="xMidYMid meet" version="1.2"><defs/><g id="56c5568eda"><g style="fill:#8fa5ba;fill-opacity:1;"><g transform="translate(98.513614, 123.726887)"><path style="stroke:none" d="M 54.6875 -7.375 C 55.425781 -6.4375 55.796875 -5.492188 55.796875 -4.546875 C 55.796875 -3.335938 55.222656 -2.296875 54.078125 -1.421875 C 53.265625 -0.671875 52.320312 -0.296875 51.25 -0.296875 C 50.03125 -0.296875 48.984375 -0.867188 48.109375 -2.015625 L 23.34375 -32.640625 L 19 -28.09375 L 19 -4.25 C 19 -2.894531 18.628906 -1.847656 17.890625 -1.109375 C 17.148438 -0.367188 16.101562 0 14.75 0 C 13.40625 0 12.363281 -0.367188 11.625 -1.109375 C 10.882812 -1.847656 10.515625 -2.894531 10.515625 -4.25 L 10.515625 -64.28125 C 10.515625 -65.632812 10.882812 -66.679688 11.625 -67.421875 C 12.363281 -68.160156 13.40625 -68.53125 14.75 -68.53125 C 16.101562 -68.53125 17.148438 -68.160156 17.890625 -67.421875 C 18.628906 -66.679688 19 -65.632812 19 -64.28125 L 19 -40.234375 L 44.78125 -66.90625 C 45.789062 -67.925781 46.800781 -68.4375 47.8125 -68.4375 C 48.820312 -68.4375 49.796875 -67.960938 50.734375 -67.015625 C 51.742188 -66.003906 52.25 -64.992188 52.25 -63.984375 C 52.25 -62.972656 51.78125 -61.992188 50.84375 -61.046875 L 29.40625 -38.8125 Z M 54.6875 -7.375 "/></g></g><g style="fill:#8fa5ba;fill-opacity:1;"><g transform="translate(157.847236, 123.726887)"><path style="stroke:none" d="M 14.75 0 C 13.269531 0 12.191406 -0.332031 11.515625 -1 C 10.847656 -1.675781 10.515625 -2.757812 10.515625 -4.25 L 10.515625 -64.1875 C 10.515625 -65.664062 10.847656 -66.742188 11.515625 -67.421875 C 12.191406 -68.097656 13.269531 -68.4375 14.75 -68.4375 C 16.238281 -68.4375 17.316406 -68.097656 17.984375 -67.421875 C 18.660156 -66.742188 19 -65.664062 19 -64.1875 L 19 -4.25 C 19 -2.757812 18.660156 -1.675781 17.984375 -1 C 17.316406 -0.332031 16.238281 0 14.75 0 Z M 14.75 0 "/></g></g><g style="fill:#8fa5ba;fill-opacity:1;"><g transform="translate(187.362425, 123.726887)"><path style="stroke:none" d="M 61.765625 -68.53125 C 63.109375 -68.53125 64.148438 -68.160156 64.890625 -67.421875 C 65.628906 -66.679688 66 -65.632812 66 -64.28125 L 66 -4.25 C 66 -2.894531 65.628906 -1.847656 64.890625 -1.109375 C 64.148438 -0.367188 63.109375 0 61.765625 0 C 60.953125 0 60.207031 -0.203125 59.53125 -0.609375 C 58.863281 -1.015625 58.191406 -1.65625 57.515625 -2.53125 L 19 -52.15625 L 19 -4.25 C 19 -2.894531 18.628906 -1.847656 17.890625 -1.109375 C 17.148438 -0.367188 16.101562 0 14.75 0 C 13.40625 0 12.363281 -0.367188 11.625 -1.109375 C 10.882812 -1.847656 10.515625 -2.894531 10.515625 -4.25 L 10.515625 -64.28125 C 10.515625 -65.632812 10.882812 -66.679688 11.625 -67.421875 C 12.363281 -68.160156 13.40625 -68.53125 14.75 -68.53125 C 15.5625 -68.53125 16.285156 -68.328125 16.921875 -67.921875 C 17.566406 -67.515625 18.257812 -66.875 19 -66 L 57.515625 -16.375 L 57.515625 -64.28125 C 57.515625 -65.632812 57.882812 -66.679688 58.625 -67.421875 C 59.363281 -68.160156 60.410156 -68.53125 61.765625 -68.53125 Z M 61.765625 -68.53125 "/></g></g><g style="fill:#8fa5ba;fill-opacity:1;"><g transform="translate(263.879558, 123.726887)"><path style="stroke:none" d="M 30.734375 0 C 22.984375 0 17.269531 -1.832031 13.59375 -5.5 C 9.925781 -9.175781 8.09375 -14.890625 8.09375 -22.640625 L 8.09375 -45.890625 C 8.09375 -53.640625 9.925781 -59.363281 13.59375 -63.0625 C 17.269531 -66.769531 22.945312 -68.59375 30.625 -68.53125 L 42.859375 -68.53125 C 49.191406 -68.53125 54.023438 -67.210938 57.359375 -64.578125 C 60.691406 -61.953125 62.628906 -57.84375 63.171875 -52.25 C 63.378906 -50.84375 63.109375 -49.765625 62.359375 -49.015625 C 61.617188 -48.273438 60.539062 -47.90625 59.125 -47.90625 C 57.78125 -47.90625 56.753906 -48.257812 56.046875 -48.96875 C 55.335938 -49.675781 54.882812 -50.738281 54.6875 -52.15625 C 54.34375 -55.1875 53.296875 -57.257812 51.546875 -58.375 C 49.796875 -59.488281 46.898438 -60.046875 42.859375 -60.046875 L 30.625 -60.046875 C 26.988281 -60.109375 24.160156 -59.703125 22.140625 -58.828125 C 20.117188 -57.953125 18.6875 -56.503906 17.84375 -54.484375 C 17 -52.460938 16.578125 -49.597656 16.578125 -45.890625 L 16.578125 -22.640625 C 16.578125 -18.929688 17.015625 -16.082031 17.890625 -14.09375 C 18.765625 -12.113281 20.195312 -10.679688 22.1875 -9.796875 C 24.175781 -8.921875 27.023438 -8.484375 30.734375 -8.484375 L 42.859375 -8.484375 C 46.085938 -8.484375 48.5625 -8.835938 50.28125 -9.546875 C 52 -10.253906 53.210938 -11.46875 53.921875 -13.1875 C 54.628906 -14.90625 54.984375 -17.382812 54.984375 -20.625 L 54.984375 -25.375 L 47.109375 -25.46875 C 44.273438 -25.46875 42.859375 -26.882812 42.859375 -29.71875 C 42.859375 -31.0625 43.226562 -32.101562 43.96875 -32.84375 C 44.707031 -33.59375 45.753906 -33.96875 47.109375 -33.96875 L 59.234375 -33.859375 C 60.578125 -33.859375 61.617188 -33.488281 62.359375 -32.75 C 63.109375 -32.007812 63.484375 -30.960938 63.484375 -29.609375 L 63.484375 -20.625 C 63.484375 -13.476562 61.8125 -8.253906 58.46875 -4.953125 C 55.132812 -1.648438 49.929688 0 42.859375 0 Z M 30.734375 0 "/></g></g><g style="fill:#8fa5ba;fill-opacity:1;"><g transform="translate(334.433, 123.726887)"><path style="stroke:none" d="M 16.875 -65.296875 C 16.875 -64.890625 16.804688 -64.347656 16.671875 -63.671875 L 11.421875 -49.9375 C 11.222656 -49.320312 10.816406 -48.828125 10.203125 -48.453125 C 9.597656 -48.085938 8.925781 -47.90625 8.1875 -47.90625 C 7.238281 -47.90625 6.378906 -48.191406 5.609375 -48.765625 C 4.835938 -49.335938 4.453125 -50.097656 4.453125 -51.046875 C 4.453125 -51.585938 4.550781 -52.09375 4.75 -52.5625 L 8.28125 -61.859375 C 7.132812 -62.460938 6.5625 -63.609375 6.5625 -65.296875 L 6.5625 -67.828125 C 6.5625 -69.109375 6.914062 -70.082031 7.625 -70.75 C 8.332031 -71.425781 9.328125 -71.765625 10.609375 -71.765625 L 13.046875 -71.765625 C 15.597656 -71.765625 16.875 -70.453125 16.875 -67.828125 Z M 16.875 -65.296875 "/></g></g><g style="fill:#8fa5ba;fill-opacity:1;"><g transform="translate(359.803943, 123.726887)"><path style="stroke:none" d="M 27.59375 0 C 21.800781 0 17.300781 -1.160156 14.09375 -3.484375 C 10.894531 -5.804688 8.894531 -9.394531 8.09375 -14.25 C 7.957031 -15.664062 8.257812 -16.757812 9 -17.53125 C 9.738281 -18.3125 10.816406 -18.703125 12.234375 -18.703125 C 13.578125 -18.703125 14.585938 -18.378906 15.265625 -17.734375 C 15.941406 -17.097656 16.410156 -16.039062 16.671875 -14.5625 C 17.148438 -12.269531 18.210938 -10.679688 19.859375 -9.796875 C 21.515625 -8.921875 24.09375 -8.484375 27.59375 -8.484375 L 42.15625 -8.484375 C 45.113281 -8.484375 47.382812 -8.820312 48.96875 -9.5 C 50.550781 -10.175781 51.679688 -11.304688 52.359375 -12.890625 C 53.035156 -14.472656 53.375 -16.710938 53.375 -19.609375 C 53.375 -23.921875 52.5625 -26.882812 50.9375 -28.5 C 49.320312 -30.125 46.394531 -30.9375 42.15625 -30.9375 L 29.609375 -30.9375 C 23.273438 -30.9375 18.554688 -32.484375 15.453125 -35.578125 C 12.359375 -38.679688 10.8125 -43.429688 10.8125 -49.828125 C 10.8125 -56.160156 12.34375 -60.859375 15.40625 -63.921875 C 18.476562 -66.992188 23.179688 -68.53125 29.515625 -68.53125 L 41.546875 -68.53125 C 52.191406 -68.53125 58.320312 -64.082031 59.9375 -55.1875 C 60.144531 -53.769531 59.875 -52.671875 59.125 -51.890625 C 58.382812 -51.117188 57.273438 -50.734375 55.796875 -50.734375 C 54.453125 -50.734375 53.441406 -51.070312 52.765625 -51.75 C 52.085938 -52.425781 51.648438 -53.472656 51.453125 -54.890625 C 50.910156 -56.835938 49.894531 -58.179688 48.40625 -58.921875 C 46.925781 -59.671875 44.640625 -60.046875 41.546875 -60.046875 L 29.515625 -60.046875 C 26.753906 -60.046875 24.648438 -59.738281 23.203125 -59.125 C 21.753906 -58.519531 20.742188 -57.492188 20.171875 -56.046875 C 19.597656 -54.597656 19.3125 -52.523438 19.3125 -49.828125 C 19.3125 -47.066406 19.613281 -44.960938 20.21875 -43.515625 C 20.820312 -42.066406 21.847656 -41.019531 23.296875 -40.375 C 24.742188 -39.738281 26.847656 -39.421875 29.609375 -39.421875 L 42.15625 -39.421875 C 48.820312 -39.421875 53.769531 -37.800781 57 -34.5625 C 60.238281 -31.332031 61.859375 -26.347656 61.859375 -19.609375 C 61.859375 -12.941406 60.238281 -8.003906 57 -4.796875 C 53.769531 -1.597656 48.820312 0 42.15625 0 Z M 27.59375 0 "/></g></g><g style="fill:#8fa5ba;fill-opacity:1;"><g transform="translate(429.750918, 123.726887)"><path style="stroke:none" d=""/></g></g><g style="fill:#8fa5ba;fill-opacity:1;"><g transform="translate(461.489859, 123.726887)"><path style="stroke:none" d="M 14.75 0 C 11.925781 0 10.515625 -1.414062 10.515625 -4.25 L 10.515625 -64.28125 C 10.515625 -67.113281 11.925781 -68.53125 14.75 -68.53125 C 17.582031 -68.53125 19 -67.113281 19 -64.28125 L 19 -8.484375 L 47 -8.484375 C 49.832031 -8.484375 51.25 -7.070312 51.25 -4.25 C 51.25 -1.414062 49.832031 0 47 0 Z M 14.75 0 "/></g></g><g style="fill:#8fa5ba;fill-opacity:1;"><g transform="translate(506.065733, 123.726887)"><path style="stroke:none" d="M 57.609375 -67.515625 C 59.097656 -66.578125 59.84375 -65.46875 59.84375 -64.1875 C 59.84375 -63.375 59.535156 -62.566406 58.921875 -61.765625 L 34.875 -24.859375 L 34.875 -4.25 C 34.875 -2.894531 34.5 -1.847656 33.75 -1.109375 C 33.007812 -0.367188 31.96875 0 30.625 0 C 29.28125 0 28.234375 -0.367188 27.484375 -1.109375 C 26.742188 -1.847656 26.375 -2.894531 26.375 -4.25 L 26.375 -24.859375 L 3.234375 -61.765625 C 2.691406 -62.703125 2.421875 -63.539062 2.421875 -64.28125 C 2.421875 -65.695312 3.128906 -66.84375 4.546875 -67.71875 C 5.492188 -68.257812 6.335938 -68.53125 7.078125 -68.53125 C 8.359375 -68.53125 9.46875 -67.820312 10.40625 -66.40625 L 30.625 -33.96875 L 51.859375 -66.40625 C 52.660156 -67.757812 53.738281 -68.4375 55.09375 -68.4375 C 55.894531 -68.4375 56.734375 -68.128906 57.609375 -67.515625 Z M 57.609375 -67.515625 "/></g></g><g style="fill:#8fa5ba;fill-opacity:1;"><g transform="translate(568.229607, 123.726887)"><path style="stroke:none" d="M 61.765625 -68.53125 C 63.109375 -68.53125 64.148438 -68.160156 64.890625 -67.421875 C 65.628906 -66.679688 66 -65.632812 66 -64.28125 L 66 -4.25 C 66 -2.894531 65.628906 -1.847656 64.890625 -1.109375 C 64.148438 -0.367188 63.109375 0 61.765625 0 C 60.953125 0 60.207031 -0.203125 59.53125 -0.609375 C 58.863281 -1.015625 58.191406 -1.65625 57.515625 -2.53125 L 19 -52.15625 L 19 -4.25 C 19 -2.894531 18.628906 -1.847656 17.890625 -1.109375 C 17.148438 -0.367188 16.101562 0 14.75 0 C 13.40625 0 12.363281 -0.367188 11.625 -1.109375 C 10.882812 -1.847656 10.515625 -2.894531 10.515625 -4.25 L 10.515625 -64.28125 C 10.515625 -65.632812 10.882812 -66.679688 11.625 -67.421875 C 12.363281 -68.160156 13.40625 -68.53125 14.75 -68.53125 C 15.5625 -68.53125 16.285156 -68.328125 16.921875 -67.921875 C 17.566406 -67.515625 18.257812 -66.875 19 -66 L 57.515625 -16.375 L 57.515625 -64.28125 C 57.515625 -65.632812 57.882812 -66.679688 58.625 -67.421875 C 59.363281 -68.160156 60.410156 -68.53125 61.765625 -68.53125 Z M 61.765625 -68.53125 "/></g></g><g style="fill:#8fa5ba;fill-opacity:1;"><g transform="translate(644.746752, 123.726887)"><path style="stroke:none" d="M 61.765625 -68.53125 C 63.109375 -68.53125 64.148438 -68.160156 64.890625 -67.421875 C 65.628906 -66.679688 66 -65.632812 66 -64.28125 L 66 -4.25 C 66 -2.894531 65.628906 -1.847656 64.890625 -1.109375 C 64.148438 -0.367188 63.109375 0 61.765625 0 C 60.953125 0 60.207031 -0.203125 59.53125 -0.609375 C 58.863281 -1.015625 58.191406 -1.65625 57.515625 -2.53125 L 19 -52.15625 L 19 -4.25 C 19 -2.894531 18.628906 -1.847656 17.890625 -1.109375 C 17.148438 -0.367188 16.101562 0 14.75 0 C 13.40625 0 12.363281 -0.367188 11.625 -1.109375 C 10.882812 -1.847656 10.515625 -2.894531 10.515625 -4.25 L 10.515625 -64.28125 C 10.515625 -65.632812 10.882812 -66.679688 11.625 -67.421875 C 12.363281 -68.160156 13.40625 -68.53125 14.75 -68.53125 C 15.5625 -68.53125 16.285156 -68.328125 16.921875 -67.921875 C 17.566406 -67.515625 18.257812 -66.875 19 -66 L 57.515625 -16.375 L 57.515625 -64.28125 C 57.515625 -65.632812 57.882812 -66.679688 58.625 -67.421875 C 59.363281 -68.160156 60.410156 -68.53125 61.765625 -68.53125 Z M 61.765625 -68.53125 "/></g></g><path style="fill:none;stroke-width:9;stroke-linecap:round;stroke-linejoin:miter;stroke:#8fa5ba;stroke-opacity:1;stroke-miterlimit:4;" d="M 4.499246 4.501341 L 704.473573 4.501341 " transform="matrix(0.748303,0.00000000000000012,-0.00000000000000012,0.748303,144.625388,140.557414)"/><g style="fill:#8fa5ba;fill-opacity:1;"><g transform="translate(184.80232, 195.43301)"><path style="stroke:none" d="M 26.4375 -19.203125 C 29.0625 -17.671875 30.375 -14.960938 30.375 -11.078125 L 30.375 -9.375 C 30.375 -6.3125 29.566406 -3.984375 27.953125 -2.390625 C 26.335938 -0.796875 24.003906 0 20.953125 0 L 7.28125 0 C 6.613281 0 6.097656 -0.179688 5.734375 -0.546875 C 5.367188 -0.910156 5.1875 -1.425781 5.1875 -2.09375 L 5.1875 -31.71875 C 5.1875 -32.382812 5.367188 -32.898438 5.734375 -33.265625 C 6.097656 -33.628906 6.613281 -33.8125 7.28125 -33.8125 L 20.296875 -33.8125 C 22.921875 -33.8125 24.945312 -33.113281 26.375 -31.71875 C 27.8125 -30.320312 28.53125 -28.328125 28.53125 -25.734375 L 28.53125 -24.390625 C 28.53125 -23.328125 28.347656 -22.34375 27.984375 -21.4375 C 27.617188 -20.539062 27.101562 -19.796875 26.4375 -19.203125 Z M 9.375 -20.40625 L 21.84375 -20.40625 C 22.707031 -20.5 23.335938 -20.898438 23.734375 -21.609375 C 24.140625 -22.328125 24.34375 -23.253906 24.34375 -24.390625 L 24.34375 -25.734375 C 24.34375 -27.160156 24.039062 -28.164062 23.4375 -28.75 C 22.84375 -29.332031 21.796875 -29.625 20.296875 -29.625 L 9.375 -29.625 Z M 26.1875 -11.078125 C 26.1875 -12.929688 25.785156 -14.25 24.984375 -15.03125 C 24.191406 -15.8125 22.847656 -16.203125 20.953125 -16.203125 L 9.375 -16.203125 L 9.375 -4.1875 L 20.953125 -4.1875 C 22.804688 -4.1875 24.140625 -4.582031 24.953125 -5.375 C 25.773438 -6.175781 26.1875 -7.507812 26.1875 -9.375 Z M 26.1875 -11.078125 "/></g></g><g style="fill:#8fa5ba;fill-opacity:1;"><g transform="translate(218.370993, 195.43301)"><path style="stroke:none" d="M 30.96875 -2.9375 C 31.101562 -2.644531 31.171875 -2.3125 31.171875 -1.9375 C 31.171875 -1.144531 30.722656 -0.566406 29.828125 -0.203125 C 29.523438 -0.0664062 29.191406 0 28.828125 0 C 28.023438 0 27.441406 -0.445312 27.078125 -1.34375 L 24.390625 -7.875 L 8.875 -7.875 L 6.28125 -1.34375 C 5.914062 -0.445312 5.332031 0 4.53125 0 C 4.207031 0 3.894531 -0.0664062 3.59375 -0.203125 C 2.65625 -0.535156 2.1875 -1.113281 2.1875 -1.9375 C 2.1875 -2.3125 2.253906 -2.644531 2.390625 -2.9375 L 14.265625 -32.171875 C 14.765625 -33.265625 15.546875 -33.8125 16.609375 -33.8125 L 16.703125 -33.8125 C 17.804688 -33.75 18.539062 -33.203125 18.90625 -32.171875 Z M 10.53125 -12.0625 L 22.6875 -12.0625 L 16.453125 -27.1875 Z M 10.53125 -12.0625 "/></g></g><g style="fill:#8fa5ba;fill-opacity:1;"><g transform="translate(251.590508, 195.43301)"><path style="stroke:none" d="M 7.28125 0 C 6.613281 0 6.097656 -0.179688 5.734375 -0.546875 C 5.367188 -0.910156 5.1875 -1.425781 5.1875 -2.09375 L 5.1875 -31.71875 C 5.1875 -32.382812 5.367188 -32.898438 5.734375 -33.265625 C 6.097656 -33.628906 6.613281 -33.8125 7.28125 -33.8125 L 19.296875 -33.8125 C 23.648438 -33.8125 26.847656 -32.789062 28.890625 -30.75 C 30.941406 -28.707031 31.96875 -25.503906 31.96875 -21.140625 L 31.96875 -12.671875 C 31.96875 -8.316406 30.941406 -5.113281 28.890625 -3.0625 C 26.847656 -1.019531 23.648438 0 19.296875 0 Z M 19.296875 -4.1875 C 21.460938 -4.1875 23.148438 -4.453125 24.359375 -4.984375 C 25.578125 -5.515625 26.453125 -6.382812 26.984375 -7.59375 C 27.515625 -8.8125 27.78125 -10.503906 27.78125 -12.671875 L 27.78125 -21.140625 C 27.78125 -23.304688 27.515625 -24.992188 26.984375 -26.203125 C 26.453125 -27.421875 25.578125 -28.296875 24.359375 -28.828125 C 23.148438 -29.359375 21.460938 -29.625 19.296875 -29.625 L 9.375 -29.625 L 9.375 -4.1875 Z M 19.296875 -4.1875 "/></g></g><g style="fill:#8fa5ba;fill-opacity:1;"><g transform="translate(287.553383, 195.43301)"><path style="stroke:none" d="M 34.859375 -33.8125 C 35.992188 -33.8125 36.5625 -33.113281 36.5625 -31.71875 L 36.5625 -2.09375 C 36.5625 -1.425781 36.378906 -0.910156 36.015625 -0.546875 C 35.648438 -0.179688 35.132812 0 34.46875 0 C 33.800781 0 33.285156 -0.179688 32.921875 -0.546875 C 32.554688 -0.910156 32.375 -1.425781 32.375 -2.09375 L 32.375 -25.1875 L 23.1875 -11.671875 C 22.851562 -11.203125 22.488281 -10.859375 22.09375 -10.640625 C 21.695312 -10.429688 21.210938 -10.328125 20.640625 -10.328125 C 20.242188 -10.328125 19.890625 -10.429688 19.578125 -10.640625 C 19.265625 -10.859375 18.941406 -11.203125 18.609375 -11.671875 L 9.375 -25.234375 L 9.375 -2.09375 C 9.375 -1.425781 9.191406 -0.910156 8.828125 -0.546875 C 8.460938 -0.179688 7.945312 0 7.28125 0 C 6.613281 0 6.097656 -0.179688 5.734375 -0.546875 C 5.367188 -0.910156 5.1875 -1.425781 5.1875 -2.09375 L 5.1875 -31.71875 C 5.1875 -32.382812 5.367188 -32.898438 5.734375 -33.265625 C 6.097656 -33.628906 6.613281 -33.8125 7.28125 -33.8125 C 8.207031 -33.8125 8.972656 -33.363281 9.578125 -32.46875 L 20.953125 -15.359375 L 32.3125 -32.46875 C 32.882812 -33.363281 33.734375 -33.8125 34.859375 -33.8125 Z M 34.859375 -33.8125 "/></g></g><g style="fill:#8fa5ba;fill-opacity:1;"><g transform="translate(329.302237, 195.43301)"><path style="stroke:none" d="M 7.28125 0 C 6.550781 0 6.019531 -0.164062 5.6875 -0.5 C 5.351562 -0.832031 5.1875 -1.363281 5.1875 -2.09375 L 5.1875 -31.671875 C 5.1875 -32.398438 5.351562 -32.929688 5.6875 -33.265625 C 6.019531 -33.597656 6.550781 -33.765625 7.28125 -33.765625 C 8.007812 -33.765625 8.539062 -33.597656 8.875 -33.265625 C 9.207031 -32.929688 9.375 -32.398438 9.375 -31.671875 L 9.375 -2.09375 C 9.375 -1.363281 9.207031 -0.832031 8.875 -0.5 C 8.539062 -0.164062 8.007812 0 7.28125 0 Z M 7.28125 0 "/></g></g><g style="fill:#8fa5ba;fill-opacity:1;"><g transform="translate(343.86695, 195.43301)"><path style="stroke:none" d="M 30.46875 -33.8125 C 31.132812 -33.8125 31.648438 -33.628906 32.015625 -33.265625 C 32.378906 -32.898438 32.5625 -32.382812 32.5625 -31.71875 L 32.5625 -2.09375 C 32.5625 -1.425781 32.378906 -0.910156 32.015625 -0.546875 C 31.648438 -0.179688 31.132812 0 30.46875 0 C 30.070312 0 29.707031 -0.0976562 29.375 -0.296875 C 29.039062 -0.492188 28.707031 -0.8125 28.375 -1.25 L 9.375 -25.734375 L 9.375 -2.09375 C 9.375 -1.425781 9.191406 -0.910156 8.828125 -0.546875 C 8.460938 -0.179688 7.945312 0 7.28125 0 C 6.613281 0 6.097656 -0.179688 5.734375 -0.546875 C 5.367188 -0.910156 5.1875 -1.425781 5.1875 -2.09375 L 5.1875 -31.71875 C 5.1875 -32.382812 5.367188 -32.898438 5.734375 -33.265625 C 6.097656 -33.628906 6.613281 -33.8125 7.28125 -33.8125 C 7.675781 -33.8125 8.03125 -33.710938 8.34375 -33.515625 C 8.664062 -33.316406 9.007812 -33 9.375 -32.5625 L 28.375 -8.078125 L 28.375 -31.71875 C 28.375 -32.382812 28.554688 -32.898438 28.921875 -33.265625 C 29.285156 -33.628906 29.800781 -33.8125 30.46875 -33.8125 Z M 30.46875 -33.8125 "/></g></g><g style="fill:#8fa5ba;fill-opacity:1;"><g transform="translate(381.625473, 195.43301)"><path style="stroke:none" d="M 15.3125 0 C 13.914062 0 13.21875 -0.695312 13.21875 -2.09375 L 13.21875 -29.578125 L 3.546875 -29.578125 C 2.148438 -29.578125 1.453125 -30.273438 1.453125 -31.671875 C 1.453125 -33.066406 2.148438 -33.765625 3.546875 -33.765625 L 27.078125 -33.765625 C 28.472656 -33.765625 29.171875 -33.066406 29.171875 -31.671875 C 29.171875 -30.273438 28.472656 -29.578125 27.078125 -29.578125 L 17.40625 -29.578125 L 17.40625 -2.09375 C 17.40625 -1.425781 17.222656 -0.910156 16.859375 -0.546875 C 16.492188 -0.179688 15.976562 0 15.3125 0 Z M 15.3125 0 "/></g></g><g style="fill:#8fa5ba;fill-opacity:1;"><g transform="translate(412.251276, 195.43301)"><path style="stroke:none" d="M 15.15625 0 C 11.332031 0 8.515625 -0.90625 6.703125 -2.71875 C 4.890625 -4.53125 3.984375 -7.347656 3.984375 -11.171875 L 3.984375 -22.6875 C 3.984375 -26.507812 4.894531 -29.328125 6.71875 -31.140625 C 8.550781 -32.953125 11.363281 -33.84375 15.15625 -33.8125 L 21.140625 -33.8125 C 24.960938 -33.8125 27.78125 -32.90625 29.59375 -31.09375 C 31.40625 -29.28125 32.3125 -26.460938 32.3125 -22.640625 L 32.3125 -11.171875 C 32.3125 -7.347656 31.40625 -4.53125 29.59375 -2.71875 C 27.78125 -0.90625 24.960938 0 21.140625 0 Z M 21.140625 -4.1875 C 22.972656 -4.1875 24.378906 -4.398438 25.359375 -4.828125 C 26.335938 -5.265625 27.039062 -5.972656 27.46875 -6.953125 C 27.90625 -7.929688 28.125 -9.335938 28.125 -11.171875 L 28.125 -22.640625 C 28.125 -24.441406 27.90625 -25.835938 27.46875 -26.828125 C 27.039062 -27.828125 26.328125 -28.539062 25.328125 -28.96875 C 24.335938 -29.40625 22.941406 -29.625 21.140625 -29.625 L 15.15625 -29.625 C 13.363281 -29.65625 11.96875 -29.453125 10.96875 -29.015625 C 9.96875 -28.585938 9.25 -27.875 8.8125 -26.875 C 8.382812 -25.882812 8.171875 -24.488281 8.171875 -22.6875 L 8.171875 -11.171875 C 8.171875 -9.335938 8.382812 -7.929688 8.8125 -6.953125 C 9.25 -5.972656 9.957031 -5.265625 10.9375 -4.828125 C 11.925781 -4.398438 13.332031 -4.1875 15.15625 -4.1875 Z M 21.140625 -4.1875 "/></g></g><g style="fill:#8fa5ba;fill-opacity:1;"><g transform="translate(448.563297, 195.43301)"><path style="stroke:none" d="M 30.46875 -33.8125 C 31.132812 -33.8125 31.648438 -33.628906 32.015625 -33.265625 C 32.378906 -32.898438 32.5625 -32.382812 32.5625 -31.71875 L 32.5625 -2.09375 C 32.5625 -1.425781 32.378906 -0.910156 32.015625 -0.546875 C 31.648438 -0.179688 31.132812 0 30.46875 0 C 30.070312 0 29.707031 -0.0976562 29.375 -0.296875 C 29.039062 -0.492188 28.707031 -0.8125 28.375 -1.25 L 9.375 -25.734375 L 9.375 -2.09375 C 9.375 -1.425781 9.191406 -0.910156 8.828125 -0.546875 C 8.460938 -0.179688 7.945312 0 7.28125 0 C 6.613281 0 6.097656 -0.179688 5.734375 -0.546875 C 5.367188 -0.910156 5.1875 -1.425781 5.1875 -2.09375 L 5.1875 -31.71875 C 5.1875 -32.382812 5.367188 -32.898438 5.734375 -33.265625 C 6.097656 -33.628906 6.613281 -33.8125 7.28125 -33.8125 C 7.675781 -33.8125 8.03125 -33.710938 8.34375 -33.515625 C 8.664062 -33.316406 9.007812 -33 9.375 -32.5625 L 28.375 -8.078125 L 28.375 -31.71875 C 28.375 -32.382812 28.554688 -32.898438 28.921875 -33.265625 C 29.285156 -33.628906 29.800781 -33.8125 30.46875 -33.8125 Z M 30.46875 -33.8125 "/></g></g><g style="fill:#8fa5ba;fill-opacity:1;"><g transform="translate(486.32182, 195.43301)"><path style="stroke:none" d=""/></g></g><g style="fill:#8fa5ba;fill-opacity:1;"><g transform="translate(501.983867, 195.43301)"><path style="stroke:none" d="M 15.15625 0 C 11.332031 0 8.515625 -0.90625 6.703125 -2.71875 C 4.890625 -4.53125 3.984375 -7.347656 3.984375 -11.171875 L 3.984375 -22.640625 C 3.984375 -26.460938 4.890625 -29.285156 6.703125 -31.109375 C 8.515625 -32.941406 11.316406 -33.84375 15.109375 -33.8125 L 21.140625 -33.8125 C 24.265625 -33.8125 26.648438 -33.160156 28.296875 -31.859375 C 29.941406 -30.566406 30.898438 -28.539062 31.171875 -25.78125 C 31.273438 -25.082031 31.140625 -24.550781 30.765625 -24.1875 C 30.398438 -23.820312 29.867188 -23.640625 29.171875 -23.640625 C 28.503906 -23.640625 27.992188 -23.8125 27.640625 -24.15625 C 27.296875 -24.507812 27.078125 -25.035156 26.984375 -25.734375 C 26.816406 -27.234375 26.300781 -28.253906 25.4375 -28.796875 C 24.570312 -29.347656 23.140625 -29.625 21.140625 -29.625 L 15.109375 -29.625 C 13.316406 -29.65625 11.921875 -29.453125 10.921875 -29.015625 C 9.921875 -28.585938 9.210938 -27.875 8.796875 -26.875 C 8.378906 -25.882812 8.171875 -24.472656 8.171875 -22.640625 L 8.171875 -11.171875 C 8.171875 -9.335938 8.382812 -7.929688 8.8125 -6.953125 C 9.25 -5.972656 9.957031 -5.265625 10.9375 -4.828125 C 11.925781 -4.398438 13.332031 -4.1875 15.15625 -4.1875 L 21.140625 -4.1875 C 23.140625 -4.1875 24.570312 -4.457031 25.4375 -5 C 26.300781 -5.550781 26.816406 -6.578125 26.984375 -8.078125 C 27.078125 -8.773438 27.296875 -9.296875 27.640625 -9.640625 C 27.992188 -9.992188 28.503906 -10.171875 29.171875 -10.171875 C 29.867188 -10.171875 30.398438 -9.988281 30.765625 -9.625 C 31.140625 -9.257812 31.273438 -8.726562 31.171875 -8.03125 C 30.898438 -5.269531 29.941406 -3.238281 28.296875 -1.9375 C 26.648438 -0.644531 24.265625 0 21.140625 0 Z M 15.15625 0 "/></g></g><g style="fill:#8fa5ba;fill-opacity:1;"><g transform="translate(536.699761, 195.43301)"><path style="stroke:none" d="M 7.28125 0 C 5.882812 0 5.1875 -0.695312 5.1875 -2.09375 L 5.1875 -31.71875 C 5.1875 -33.113281 5.882812 -33.8125 7.28125 -33.8125 C 8.675781 -33.8125 9.375 -33.113281 9.375 -31.71875 L 9.375 -4.1875 L 23.1875 -4.1875 C 24.582031 -4.1875 25.28125 -3.488281 25.28125 -2.09375 C 25.28125 -0.695312 24.582031 0 23.1875 0 Z M 7.28125 0 "/></g></g><g style="fill:#8fa5ba;fill-opacity:1;"><g transform="translate(563.684391, 195.43301)"><path style="stroke:none" d="M 15.859375 0 C 12.035156 0 9.21875 -0.90625 7.40625 -2.71875 C 5.59375 -4.53125 4.6875 -7.347656 4.6875 -11.171875 L 4.6875 -31.71875 C 4.6875 -33.113281 5.382812 -33.8125 6.78125 -33.8125 C 8.175781 -33.8125 8.875 -33.113281 8.875 -31.71875 L 8.875 -11.171875 C 8.875 -9.335938 9.085938 -7.929688 9.515625 -6.953125 C 9.953125 -5.972656 10.660156 -5.265625 11.640625 -4.828125 C 12.617188 -4.398438 14.023438 -4.1875 15.859375 -4.1875 L 21.84375 -4.1875 C 23.675781 -4.1875 25.082031 -4.398438 26.0625 -4.828125 C 27.039062 -5.265625 27.742188 -5.972656 28.171875 -6.953125 C 28.609375 -7.929688 28.828125 -9.335938 28.828125 -11.171875 L 28.828125 -31.71875 C 28.828125 -33.113281 29.523438 -33.8125 30.921875 -33.8125 C 32.316406 -33.8125 33.015625 -33.113281 33.015625 -31.71875 L 33.015625 -11.171875 C 33.015625 -7.347656 32.109375 -4.53125 30.296875 -2.71875 C 28.484375 -0.90625 25.664062 0 21.84375 0 Z M 15.859375 0 "/></g></g><g style="fill:#8fa5ba;fill-opacity:1;"><g transform="translate(601.39304, 195.43301)"><path style="stroke:none" d="M 26.4375 -19.203125 C 29.0625 -17.671875 30.375 -14.960938 30.375 -11.078125 L 30.375 -9.375 C 30.375 -6.3125 29.566406 -3.984375 27.953125 -2.390625 C 26.335938 -0.796875 24.003906 0 20.953125 0 L 7.28125 0 C 6.613281 0 6.097656 -0.179688 5.734375 -0.546875 C 5.367188 -0.910156 5.1875 -1.425781 5.1875 -2.09375 L 5.1875 -31.71875 C 5.1875 -32.382812 5.367188 -32.898438 5.734375 -33.265625 C 6.097656 -33.628906 6.613281 -33.8125 7.28125 -33.8125 L 20.296875 -33.8125 C 22.921875 -33.8125 24.945312 -33.113281 26.375 -31.71875 C 27.8125 -30.320312 28.53125 -28.328125 28.53125 -25.734375 L 28.53125 -24.390625 C 28.53125 -23.328125 28.347656 -22.34375 27.984375 -21.4375 C 27.617188 -20.539062 27.101562 -19.796875 26.4375 -19.203125 Z M 9.375 -20.40625 L 21.84375 -20.40625 C 22.707031 -20.5 23.335938 -20.898438 23.734375 -21.609375 C 24.140625 -22.328125 24.34375 -23.253906 24.34375 -24.390625 L 24.34375 -25.734375 C 24.34375 -27.160156 24.039062 -28.164062 23.4375 -28.75 C 22.84375 -29.332031 21.796875 -29.625 20.296875 -29.625 L 9.375 -29.625 Z M 26.1875 -11.078125 C 26.1875 -12.929688 25.785156 -14.25 24.984375 -15.03125 C 24.191406 -15.8125 22.847656 -16.203125 20.953125 -16.203125 L 9.375 -16.203125 L 9.375 -4.1875 L 20.953125 -4.1875 C 22.804688 -4.1875 24.140625 -4.582031 24.953125 -5.375 C 25.773438 -6.175781 26.1875 -7.507812 26.1875 -9.375 Z M 26.1875 -11.078125 "/></g></g></g></svg>